<svg id="Layer_1" enable-background="new 0 0 512 512" height="512" viewBox="0 0 512 512" width="512" xmlns="http://www.w3.org/2000/svg"><path d="m271 332h-120v-242h120z" fill="#57d9d4"/><path d="m151 60h120v60h-120z" fill="#26bfbf"/><path d="m151 302h120v60h-120z" fill="#26bfbf"/><path d="m256 60h15v332h-15z" fill="#f03800"/><path d="m466 392h-135v-332h135z" fill="#fdbf00"/><path d="m391 180h30v152h-30z" fill="#465a61"/><path d="m391 120h30v30h-30z" fill="#465a61"/><path d="m346 332h-90v-272h90z" fill="#ff9100"/><path d="m121 512h-90v-90h90z" fill="#5b5555"/><path d="m481 512h-90v-90h90z" fill="#463f3f"/><path d="m166 392h-120v-392h120z" fill="#ffda2d"/><path d="m512 452h-512v-90h512z" fill="#766e6e"/><path d="m256 362h256v90h-256z" fill="#5b5555"/><g fill="#596c76"><path d="m91 60h30v30h-30z"/><path d="m91 120h30v30h-30z"/><path d="m91 302h30v30h-30z"/></g><path d="m256 30h90v60h-90z" fill="#ff641a"/><path d="m256 302h90v60h-90z" fill="#ff641a"/></svg>